<?xml version="1.0" encoding="UTF-8" standalone="no"?>
<!-- Created with Inkscape (http://www.inkscape.org/) -->

<svg
   xmlns:dc="http://purl.org/dc/elements/1.1/"
   xmlns:cc="http://creativecommons.org/ns#"
   xmlns:rdf="http://www.w3.org/1999/02/22-rdf-syntax-ns#"
   xmlns:svg="http://www.w3.org/2000/svg"
   xmlns="http://www.w3.org/2000/svg"
   xmlns:sodipodi="http://sodipodi.sourceforge.net/DTD/sodipodi-0.dtd"
   xmlns:inkscape="http://www.inkscape.org/namespaces/inkscape"
   version="1.2"
   width="1000"
   height="160.13"
   id="svg2"
   inkscape:version="0.48.5 r10040"
   sodipodi:docname="B&amp;H_Logo.svg">
  <sodipodi:namedview
     pagecolor="#ffffff"
     bordercolor="#666666"
     borderopacity="1"
     objecttolerance="10"
     gridtolerance="10"
     guidetolerance="10"
     inkscape:pageopacity="0"
     inkscape:pageshadow="2"
     inkscape:window-width="1536"
     inkscape:window-height="801"
     id="namedview4536"
     showgrid="false"
     inkscape:zoom="0.6675088"
     inkscape:cx="358.58914"
     inkscape:cy="320.44056"
     inkscape:window-x="-8"
     inkscape:window-y="-8"
     inkscape:window-maximized="1"
     inkscape:current-layer="svg2" />
  <defs
     id="defs4" />
  <metadata
     id="metadata7">
    <rdf:RDF>
      <cc:Work
         rdf:about="">
        <dc:format>image/svg+xml</dc:format>
        <dc:type
           rdf:resource="http://purl.org/dc/dcmitype/StillImage" />
        <dc:title />
      </cc:Work>
    </rdf:RDF>
  </metadata>
  <g
     transform="matrix(1.1808463,0,0,1.1808463,-90.423144,-572.18984)"
     id="layer1"
     style="display:inline">
    <flowRoot
       transform="translate(0,52.36218)"
       id="flowRoot3981"
       xml:space="preserve"
       style="font-size:40px;font-style:normal;font-variant:normal;font-weight:normal;font-stretch:normal;line-height:125%;letter-spacing:0px;word-spacing:0px;fill:#000000;fill-opacity:1;stroke:none;font-family:the dead saloon;-inkscape-font-specification:the dead saloon"><flowRegion
         id="flowRegion3983"><rect
           width="195.71428"
           height="245.71428"
           x="-1345.7142"
           y="-247.14285"
           id="rect3985" /></flowRegion><flowPara
         id="flowPara3987" /></flowRoot>    <g
       transform="translate(-322.75089,34.57316)"
       id="g4129">
      <g
         id="g4117">
        <g
           transform="translate(167.75244,-49.674267)"
           id="g4174">
          <g
             transform="matrix(0.55380712,0,0,0.55380712,181.69687,366.14706)"
             id="g4212">
            <g
               id="g4194">
              <path
                 d="m 379.20297,293.48234 0,-0.91553 23.37647,0 c 6.8359,9e-5 11.67802,0.28492 14.52637,0.85449 2.84826,0.56975 5.57449,1.65821 8.17871,3.26539 2.60411,1.60734 4.82172,3.92667 6.65283,6.958 1.83099,3.03149 2.74652,6.47997 2.74658,10.34546 -6e-5,7.60911 -3.74355,13.6109 -11.23047,18.00537 6.46967,1.09869 11.35248,3.77406 14.64844,8.02613 3.29583,4.25215 4.94378,9.40962 4.94385,15.47241 -7e-5,5.65594 -1.41405,10.80324 -4.24195,15.44189 -2.82802,4.63868 -6.06288,7.72095 -9.70459,9.24683 -3.64181,1.52588 -8.73824,2.28882 -15.2893,2.28882 l -34.72901,0 0,-0.8545 c 2.76692,1e-5 4.53694,-0.55948 5.31006,-1.67846 0.7731,-1.11898 1.15966,-3.97745 1.15967,-8.57544 l 0,-67.74902 c -1e-5,-3.25513 -0.0916,-5.47274 -0.27466,-6.65284 -0.18312,-1.17992 -0.78329,-2.05476 -1.80054,-2.62451 -1.01726,-0.56957 -2.44141,-0.8544 -4.27246,-0.85449 z m 16.72364,0.97656 0,39.48975 10.92529,0 c 7.40556,5e-5 12.31888,-2.11584 14.73999,-6.34766 2.42101,-4.23171 3.63154,-8.44313 3.63159,-12.63428 -5e-5,-4.51653 -0.93592,-8.29053 -2.80762,-11.32202 -1.87179,-3.03133 -4.60819,-5.32014 -8.20922,-6.86645 -3.60112,-1.54614 -8.901,-2.31925 -15.89966,-2.31934 z m 7.01904,41.38184 -7.01904,0 0,28.50342 c -3e-5,3.94695 0.15256,6.51042 0.45776,7.69043 0.30515,1.18002 0.99688,2.42106 2.07519,3.72314 1.07827,1.30209 2.81777,2.34986 5.21851,3.14331 2.40068,0.79346 5.85934,1.19019 10.37598,1.19019 6.99865,0 11.94249,-1.61743 14.83154,-4.8523 2.88894,-3.23485 4.33344,-8.02611 4.3335,-14.37378 -6e-5,-6.59177 -1.2818,-11.96286 -3.84522,-16.11328 -2.56353,-4.15035 -5.46269,-6.67313 -8.69751,-7.56836 -3.2349,-0.89513 -9.14514,-1.34273 -17.73071,-1.34277 z"
                 id="path4238"
                 style="font-size:125px;font-style:normal;font-variant:normal;font-weight:normal;font-stretch:normal;line-height:125%;letter-spacing:0px;word-spacing:0px;fill:#000000;fill-opacity:1;stroke:none;font-family:Felix Titling;-inkscape-font-specification:Felix Titling"
                 inkscape:connector-curvature="0" />
              <path
                 d="m 457.28969,318.48722 0,-0.74707 40.69336,0 0,8.9209 -0.65918,0 c -0.87895,-3.31049 -1.6187,-5.25873 -2.21924,-5.84473 -0.60063,-0.58587 -2.07279,-0.87884 -4.4165,-0.8789 l -21.35743,0 0,29.04785 19.81934,0 c 1.96285,3e-5 3.20797,-0.18307 3.73535,-0.54932 0.52731,-0.36617 0.80563,-0.90084 0.83496,-1.604 l 0.65918,0 0,6.1084 -0.65918,0 c -0.14652,-0.84958 -0.49076,-1.42087 -1.03271,-1.71387 -0.54203,-0.29294 -1.54545,-0.43942 -3.01026,-0.43945 l -20.34668,0 0,19.99511 c -10e-6,3.01759 0.27831,5.19288 0.83497,6.52588 0.55662,1.33302 1.44285,2.16797 2.65869,2.50489 1.2158,0.33691 3.05417,0.50537 5.51513,0.50537 l 11.42578,0 c 3.63278,0 5.95455,-0.12451 6.96534,-0.37354 1.0107,-0.24902 1.86763,-0.74707 2.5708,-1.49414 0.70308,-0.74706 1.24507,-2.38036 1.62597,-4.8999 l 0.61524,0 0,8.9209 -44.25293,0 0,-0.61524 c 1.49413,-0.0879 2.62939,-0.37353 3.40576,-0.85693 0.77636,-0.4834 1.16454,-1.73584 1.16455,-3.75733 l 0,-52.29492 c -1e-5,-2.37298 -0.20508,-4.0429 -0.61523,-5.00976 -0.41017,-0.96674 -1.72852,-1.45013 -3.95508,-1.4502 z"
                 id="path4240"
                 style="font-size:90px;font-style:normal;font-variant:normal;font-weight:normal;font-stretch:normal;line-height:125%;letter-spacing:6.69999981px;word-spacing:0px;fill:#000000;fill-opacity:1;stroke:none;font-family:Felix Titling;-inkscape-font-specification:Felix Titling"
                 inkscape:connector-curvature="0" />
              <path
                 d="m 573.14984,382.4716 -12.21679,0 0,-9.97559 c -6.24028,6.94336 -13.68168,10.41504 -22.32422,10.41504 -6.41604,0 -11.50637,-1.80176 -15.271,-5.40527 -3.76466,-3.60351 -5.64698,-8.58397 -5.64697,-14.94141 l 0,-38.75976 c -1e-5,-2.34369 -0.27833,-3.83051 -0.83496,-4.46045 -0.55665,-0.62982 -1.86036,-0.94476 -3.91114,-0.94483 l 0,-0.65918 17.18262,0 0,0.65918 c -1.81642,7e-5 -3.09816,0.28571 -3.84521,0.85694 -0.74709,0.57135 -1.12063,1.92633 -1.12061,4.06494 l 0,35.55175 c -2e-5,7.44143 1.74315,12.75148 5.22949,15.93018 3.48631,3.17872 7.45603,4.76807 11.90918,4.76807 7.00192,0 13.21285,-3.14941 18.63282,-9.44825 l 0,-43.81347 c -6e-5,-3.83783 -0.33697,-6.11566 -1.01075,-6.8335 -0.67388,-0.71771 -1.72856,-1.07659 -3.16406,-1.07666 l -0.61523,0 0,-0.65918 17.00683,0 0,0.65918 c -2.10943,0.11725 -3.43512,0.46882 -3.97705,1.05469 -0.54205,0.586 -0.81305,1.69928 -0.81299,3.33984 l 0,52.73438 c -6e-5,2.08008 0.10248,3.44238 0.30762,4.08691 0.20502,0.64454 0.6225,1.1792 1.25244,1.60401 0.62982,0.4248 1.70648,0.6372 3.22998,0.6372 z"
                 id="path4242"
                 style="font-size:90px;font-style:normal;font-variant:normal;font-weight:normal;font-stretch:normal;line-height:125%;letter-spacing:6.69999981px;word-spacing:0px;fill:#000000;fill-opacity:1;stroke:none;font-family:Felix Titling;-inkscape-font-specification:Felix Titling"
                 inkscape:connector-curvature="0" />
              <path
                 d="m 618.08228,318.57511 3.07617,8.08594 -0.52735,0.0879 c -3e-5,-0.0292 -0.81302,-0.8935 -2.43896,-2.59277 -1.62601,-1.69916 -3.48636,-3.01019 -5.58106,-3.93311 -2.09475,-0.92279 -4.46047,-1.38421 -7.09716,-1.38428 -4.42385,7e-5 -7.93215,1.26716 -10.52491,3.80127 -2.59278,2.53424 -3.88916,5.58844 -3.88916,9.1626 0,2.3731 0.60791,4.44585 1.82373,6.21826 1.21581,1.77251 3.75732,3.42046 7.62452,4.94385 6.65036,2.2266 11.1987,3.90385 13.64502,5.03174 2.44625,1.12796 4.80465,3.03958 7.07519,5.73486 2.27047,2.69534 3.40572,6.15237 3.40576,10.3711 -4e-5,1.75783 -0.20512,3.43507 -0.61523,5.03173 -0.4102,1.5967 -1.06938,3.13478 -1.97754,4.61426 -0.90824,1.4795 -1.99955,2.82716 -3.27393,4.04297 -1.27444,1.21582 -2.57083,2.13868 -3.88916,2.76856 -1.31839,0.62988 -3.39846,1.10595 -6.24023,1.42822 -2.84182,0.32227 -4.71682,0.4834 -5.625,0.4834 l -17.27051,0 0,-18.8086 0.65918,0 c 0.0586,6.24025 1.52343,10.59083 4.39453,13.05176 2.87109,2.46094 7.33885,3.69141 13.40332,3.69141 5.50779,0 9.68991,-1.30371 12.54639,-3.91113 2.85641,-2.60742 4.28463,-5.74218 4.28467,-9.4043 -4e-5,-2.22655 -0.49809,-4.12352 -1.49414,-5.69092 -0.99613,-1.56736 -2.38773,-2.94431 -4.17481,-4.13086 -1.78714,-1.1865 -5.17092,-2.62937 -10.15137,-4.32861 -4.95118,-1.72849 -8.43018,-3.2446 -10.43701,-4.54834 -2.00684,-1.30368 -3.68409,-3.26657 -5.03174,-5.88867 -1.34766,-2.62203 -2.02148,-5.29537 -2.02148,-8.02002 0,-5.00972 1.72119,-9.21381 5.16357,-12.61231 3.44237,-3.39837 7.96141,-5.09759 13.55713,-5.09765 2.16795,6e-5 4.51169,0.24908 7.03125,0.74707 2.5195,0.49811 3.92575,0.82037 4.21875,0.96679 0.11716,0.0587 0.23434,0.088 0.35157,0.0879 z"
                 id="path4244"
                 style="font-size:90px;font-style:normal;font-variant:normal;font-weight:normal;font-stretch:normal;line-height:125%;letter-spacing:6.69999981px;word-spacing:0px;fill:#000000;fill-opacity:1;stroke:none;font-family:Felix Titling;-inkscape-font-specification:Felix Titling"
                 inkscape:connector-curvature="0" />
              <path
                 d="m 667.84866,318.57511 3.07618,8.08594 -0.52735,0.0879 c -3e-5,-0.0292 -0.81302,-0.8935 -2.43896,-2.59277 -1.62601,-1.69916 -3.48636,-3.01019 -5.58106,-3.93311 -2.09475,-0.92279 -4.46047,-1.38421 -7.09717,-1.38428 -4.42384,7e-5 -7.93214,1.26716 -10.5249,3.80127 -2.59278,2.53424 -3.88917,5.58844 -3.88916,9.1626 -10e-6,2.3731 0.6079,4.44585 1.82373,6.21826 1.21581,1.77251 3.75731,3.42046 7.62451,4.94385 6.65037,2.2266 11.19871,3.90385 13.64502,5.03174 2.44626,1.12796 4.80466,3.03958 7.0752,5.73486 2.27047,2.69534 3.40572,6.15237 3.40576,10.3711 -4e-5,1.75783 -0.20512,3.43507 -0.61523,5.03173 -0.4102,1.5967 -1.06938,3.13478 -1.97754,4.61426 -0.90824,1.4795 -1.99955,2.82716 -3.27393,4.04297 -1.27445,1.21582 -2.57083,2.13868 -3.88916,2.76856 -1.31839,0.62988 -3.39846,1.10595 -6.24023,1.42822 -2.84182,0.32227 -4.71682,0.4834 -5.625,0.4834 l -17.27051,0 0,-18.8086 0.65918,0 c 0.0586,6.24025 1.52343,10.59083 4.39453,13.05176 2.87108,2.46094 7.33885,3.69141 13.40332,3.69141 5.50779,0 9.68991,-1.30371 12.54639,-3.91113 2.85641,-2.60742 4.28463,-5.74218 4.28467,-9.4043 -4e-5,-2.22655 -0.49809,-4.12352 -1.49415,-5.69092 -0.99612,-1.56736 -2.38772,-2.94431 -4.1748,-4.13086 -1.78714,-1.1865 -5.17093,-2.62937 -10.15137,-4.32861 -4.95119,-1.72849 -8.43019,-3.2446 -10.43701,-4.54834 -2.00684,-1.30368 -3.68409,-3.26657 -5.03174,-5.88867 -1.34766,-2.62203 -2.02149,-5.29537 -2.02148,-8.02002 -10e-6,-5.00972 1.72118,-9.21381 5.16357,-12.61231 3.44237,-3.39837 7.96141,-5.09759 13.55713,-5.09765 2.16795,6e-5 4.51169,0.24908 7.03125,0.74707 2.5195,0.49811 3.92575,0.82037 4.21875,0.96679 0.11715,0.0587 0.23434,0.088 0.35156,0.0879 z"
                 id="path4246"
                 style="font-size:90px;font-style:normal;font-variant:normal;font-weight:normal;font-stretch:normal;line-height:125%;letter-spacing:6.69999981px;word-spacing:0px;fill:#000000;fill-opacity:1;stroke:none;font-family:Felix Titling;-inkscape-font-specification:Felix Titling"
                 inkscape:connector-curvature="0" />
              <path
                 d="m 703.42075,317.74015 0,0.65918 c -0.84963,-0.0878 -1.79446,0.044 -2.83448,0.39551 -1.04005,0.35163 -1.65529,0.86432 -1.8457,1.53809 -0.19044,0.67389 -0.28566,2.27056 -0.28564,4.79003 l 0,49.70215 c -2e-5,2.69532 0.10984,4.34327 0.32959,4.94385 0.21971,0.60059 0.64451,1.09864 1.27441,1.49414 0.62987,0.39551 1.75047,0.59326 3.36182,0.59326 l 0,0.61524 -17.27051,0 0,-0.61524 c 2.16796,0 3.51562,-0.41748 4.04297,-1.25244 0.52733,-0.83496 0.79101,-2.73193 0.79101,-5.69092 l 0,-49.21875 c 0,-3.07611 -0.29297,-5.09027 -0.8789,-6.04248 -0.58595,-0.95208 -1.90431,-1.36956 -3.95508,-1.25244 l 0,-0.65918 z"
                 id="path4248"
                 style="font-size:90px;font-style:normal;font-variant:normal;font-weight:normal;font-stretch:normal;line-height:125%;letter-spacing:6.69999981px;word-spacing:0px;fill:#000000;fill-opacity:1;stroke:none;font-family:Felix Titling;-inkscape-font-specification:Felix Titling"
                 inkscape:connector-curvature="0" />
              <path
                 d="m 769.75455,317.74015 12.52441,0 0,0.65918 c -1.90436,0.0587 -3.22272,0.46149 -3.95508,1.2085 -0.73248,0.74713 -1.09869,2.32184 -1.09863,4.72412 l 0,58.93066 -51.63574,-54.97558 0,47.90039 c -10e-6,1.52344 0.11717,2.65137 0.35156,3.38379 0.23436,0.73242 0.57128,1.23047 1.01074,1.49414 0.43944,0.26367 1.53807,0.52734 3.2959,0.79101 l 0,0.61524 -12.43652,0 0,-0.61524 c 2.22655,0 3.61083,-0.3955 4.15283,-1.18652 0.54198,-0.79101 0.81298,-2.68066 0.81299,-5.66895 l 0,-43.81347 c -10e-6,-3.83784 -0.53468,-6.9726 -1.60401,-9.4043 -1.06934,-2.43158 -3.5376,-3.55951 -7.40478,-3.38379 l 0,-0.65918 12.17285,0 48.51563,51.67969 0,-45.70313 c -7e-5,-2.46087 -0.43952,-3.96234 -1.31836,-4.50439 -0.87897,-0.54193 -2.0069,-0.81292 -3.38379,-0.81299 z"
                 id="path4250"
                 style="font-size:90px;font-style:normal;font-variant:normal;font-weight:normal;font-stretch:normal;line-height:125%;letter-spacing:6.69999981px;word-spacing:0px;fill:#000000;fill-opacity:1;stroke:none;font-family:Felix Titling;-inkscape-font-specification:Felix Titling"
                 inkscape:connector-curvature="0" />
              <path
                 d="m 794.69183,317.74015 18.54493,0 0,0.65918 c -2.02151,-0.0878 -3.4424,0.21247 -4.2627,0.90088 -0.82033,0.68854 -1.23048,2.48297 -1.23047,5.3833 l 0,24.8291 38.45215,-28.87207 c 0.76166,-0.52728 1.14252,-1.01068 1.14258,-1.45019 -6e-5,-0.52728 -0.86431,-0.79095 -2.59277,-0.79102 l 0,-0.65918 13.9746,0 0,0.65918 c -3.51568,0.088 -6.94341,1.37702 -10.2832,3.86719 l -33.48633,25.00488 33.39844,25.40039 c 0.0292,0.0293 0.0732,0.0586 0.13184,0.0879 0.0585,0.0293 0.10248,0.0732 0.13183,0.13184 0.0585,0.0293 0.11713,0.0439 0.17578,0.0439 4.39447,3.28126 7.80023,5.58838 10.21729,6.92139 2.41692,1.333 4.6801,1.99951 6.78955,1.99951 l 0,0.61523 -22.0166,0 0,-0.61523 c 1.96284,0 2.94428,-0.21973 2.94433,-0.65918 -5e-5,-0.38086 -0.80571,-1.18652 -2.41699,-2.41699 l -36.5625,-27.81739 0,24.03809 c -1e-5,2.8125 0.19774,4.54102 0.59326,5.18555 0.39549,0.64453 0.92284,1.10595 1.58203,1.38427 0.65917,0.27832 1.73583,0.37354 3.22999,0.28565 l 0,0.61523 -18.45704,0 0,-0.61523 c 2.46094,0.11719 4.00635,-0.25635 4.63623,-1.12061 0.62988,-0.86425 0.94482,-2.68798 0.94483,-5.47119 l 0,-50.22949 c -10e-6,-2.87104 -0.31495,-4.73138 -0.94483,-5.58106 -0.62988,-0.84954 -2.17529,-1.20111 -4.63623,-1.05468 z"
                 id="path4252"
                 style="font-size:90px;font-style:normal;font-variant:normal;font-weight:normal;font-stretch:normal;line-height:125%;letter-spacing:6.69999981px;word-spacing:0px;fill:#000000;fill-opacity:1;stroke:none;font-family:Felix Titling;-inkscape-font-specification:Felix Titling"
                 inkscape:connector-curvature="0" />
              <path
                 d="m 965.13529,297.08341 3.84521,10.25391 -1.2207,0 c -3.33665,-4.06893 -7.21238,-7.35465 -11.6272,-9.85718 -4.41492,-2.50235 -8.7179,-3.75357 -12.90894,-3.75366 -3.8249,9e-5 -6.69355,1.08855 -8.60595,3.26538 -1.91246,2.177 -2.86868,4.58789 -2.86866,7.23267 -2e-5,4.92357 4.00795,11.33226 12.02393,19.22607 l 39.85596,39.36768 c 2.97029,-4.0283 5.02514,-9.17559 6.16455,-15.4419 1.13924,-6.26623 1.7089,-11.10835 1.70898,-14.52636 -8e-5,-2.52274 -0.57992,-4.11982 -1.7395,-4.79126 -1.15975,-0.67134 -3.04167,-1.06806 -5.64575,-1.19019 l -0.85449,-0.12207 -2.01416,0.12207 0,-1.0376 19.10403,-0.12207 0,1.15967 c -2.03463,-0.24408 -3.40792,0.30523 -4.1199,1.64795 -0.71217,1.34283 -1.41407,4.33354 -2.10572,8.97217 -1.70907,12.20706 -4.61841,21.24025 -8.72802,27.09961 l 9.21631,9.15527 c 4.43512,4.39454 8.93133,6.5918 13.48873,6.5918 3.2958,0 6.7138,-1.0376 10.2539,-3.1128 l 0.6104,0.8545 c -5.4526,3.86556 -11.3527,5.79833 -17.7002,5.79834 -6.67327,-10e-6 -12.79712,-2.76693 -18.37158,-8.30079 -8e-5,-0.16275 -0.22388,-0.44758 -0.67139,-0.85449 l -2.99072,-2.86865 c -8.5043,8.01595 -19.44993,12.02392 -32.83692,12.02393 -12.89879,-10e-6 -22.50164,-3.2959 -28.80859,-9.8877 -6.30697,-6.59178 -9.46045,-13.85496 -9.46045,-21.78955 0,-6.87659 2.12605,-12.84786 6.37817,-17.91382 4.25211,-5.06586 10.08096,-8.29055 17.48658,-9.67407 -2.11591,-3.01101 -3.72317,-5.74741 -4.82178,-8.20923 -1.09866,-2.46168 -1.64797,-5.09636 -1.64795,-7.90405 -2e-5,-4.43515 1.58689,-8.42277 4.76074,-11.96289 3.1738,-3.53995 8.19902,-5.30997 15.07568,-5.31006 3.98759,9e-5 7.48694,0.52906 10.49805,1.58691 3.01102,1.05803 6.10346,2.48219 9.27735,4.27246 z m 12.39013,73.12012 -34.30176,-33.20312 c -0.24417,-0.20341 -1.6785,-1.69877 -4.30297,-4.48609 -2.62455,-2.78722 -4.3437,-4.75051 -5.15748,-5.88989 -12.24773,2.84836 -18.37159,8.97221 -18.37158,18.37158 -10e-6,8.42288 3.9571,16.23537 11.87134,23.4375 7.9142,7.20216 16.91687,10.80323 27.00806,10.80322 5.33035,10e-6 9.46039,-0.64086 12.39013,-1.9226 2.92963,-1.28174 6.24587,-3.42814 9.94873,-6.43921 0.16269,-0.16275 0.3458,-0.30517 0.54932,-0.42725 0.20338,-0.12206 0.32545,-0.20344 0.36621,-0.24414 z"
                 id="path4254"
                 style="font-size:125px;font-style:normal;font-variant:normal;font-weight:normal;font-stretch:normal;line-height:125%;letter-spacing:0px;word-spacing:0px;fill:#000000;fill-opacity:1;stroke:none;font-family:Felix Titling;-inkscape-font-specification:Felix Titling"
                 inkscape:connector-curvature="0" />
              <path
                 d="m 1139.7902,337.61076 -49.3775,0 0,34.60693 c 0,3.25522 0.1526,5.33041 0.4578,6.22559 0.3052,0.89518 0.8748,1.64795 1.709,2.2583 0.8341,0.61035 2.2888,0.91553 4.364,0.91552 l 0,0.8545 -23.2544,0 0,-0.8545 c 4.2318,0.28484 6.3476,-1.77001 6.3477,-6.16455 l 0,-72.32666 c -10e-5,-4.10961 -0.3357,-6.71378 -1.0071,-7.8125 -0.6714,-1.09854 -2.4516,-1.70889 -5.3406,-1.83105 l 0,-0.91553 23.2544,0 0,0.91553 c -2.5635,0.16285 -4.2928,0.65113 -5.188,1.46484 -0.8952,0.81389 -1.3428,2.48218 -1.3428,5.00489 l 0,35.15625 49.3775,0 0,-32.16553 c 0,-3.66203 -0.3154,-6.15429 -0.946,-7.47681 -0.6308,-1.32234 -2.3906,-1.98355 -5.2796,-1.98364 l 0,-0.91553 23.0103,0 0,0.91553 c -1.8312,9e-5 -3.1943,0.21371 -4.0894,0.64087 -0.8952,0.42733 -1.5056,1.08855 -1.831,1.98364 -0.3256,0.89527 -0.4884,3.17391 -0.4883,6.83594 l 0,69.03076 c -10e-5,3.54005 0.1627,5.74748 0.4883,6.62232 0.3254,0.87483 0.8951,1.59708 1.709,2.16674 0.8137,0.56967 2.2175,0.8545 4.2114,0.85449 l 0,0.8545 -23.0103,0 0,-0.8545 c 2.4821,1e-5 4.1402,-0.50862 4.9744,-1.52587 0.8341,-1.01725 1.2512,-3.76383 1.2512,-8.23975 z"
                 id="path4256"
                 style="font-size:125px;font-style:normal;font-variant:normal;font-weight:normal;font-stretch:normal;line-height:125%;letter-spacing:0px;word-spacing:0px;fill:#000000;fill-opacity:1;stroke:none;font-family:Felix Titling;-inkscape-font-specification:Felix Titling"
                 inkscape:connector-curvature="0" />
              <path
                 d="m 1188.5044,317.74015 0,0.65918 c -0.8497,-0.0878 -1.7945,0.044 -2.8345,0.39551 -1.04,0.35163 -1.6553,0.86432 -1.8458,1.53809 -0.1903,0.67389 -0.2855,2.27056 -0.2855,4.79003 l 0,49.70215 c 0,2.69532 0.1098,4.34327 0.3296,4.94385 0.2197,0.60059 0.6445,1.09864 1.2744,1.49414 0.6298,0.39551 1.7503,0.59326 3.3618,0.59326 l 0,0.61524 -17.2706,0 0,-0.61524 c 2.168,0 3.5156,-0.41748 4.043,-1.25244 0.5273,-0.83496 0.791,-2.73193 0.791,-5.69092 l 0,-49.21875 c 0,-3.07611 -0.293,-5.09027 -0.8789,-6.04248 -0.586,-0.95208 -1.9043,-1.36956 -3.9551,-1.25244 l 0,-0.65918 z"
                 id="path4258"
                 style="font-size:90px;font-style:normal;font-variant:normal;font-weight:normal;font-stretch:normal;line-height:125%;letter-spacing:6.69999981px;word-spacing:0px;fill:#000000;fill-opacity:1;stroke:none;font-family:Felix Titling;-inkscape-font-specification:Felix Titling"
                 inkscape:connector-curvature="0" />
              <path
                 d="m 1257.4749,320.99211 2.4169,6.85546 -0.6152,0 c -6.2696,-6.24017 -13.6524,-9.36028 -22.1484,-9.36035 -8.8185,7e-5 -15.9449,2.62213 -21.3794,7.86621 -5.4347,5.24419 -8.152,11.58696 -8.152,19.02832 0,4.59964 1.2085,9.88773 3.6256,15.86426 2.4169,5.97658 6.2329,10.89112 11.4477,14.74365 5.2148,3.85254 11.5283,5.77881 18.9404,5.77881 4.8632,0 9.6313,-0.78369 14.3042,-2.35107 4.6729,-1.56738 8.1519,-3.66943 10.437,-6.30615 l 0.5713,0.17578 -4.5264,6.94336 c -7.3242,1.58203 -12.0777,2.51953 -14.2601,2.8125 -2.1828,0.29296 -5.1051,0.43945 -8.7671,0.43945 -13.5645,0 -23.2691,-3.14209 -29.1139,-9.42627 -5.8447,-6.28417 -8.7671,-13.80613 -8.7671,-22.56592 0,-5.91793 1.5015,-11.60884 4.5044,-17.07275 3.0029,-5.46382 7.3315,-9.77045 12.9859,-12.91992 5.6542,-3.14935 12.1142,-4.72406 19.3798,-4.72412 3.6328,6e-5 6.7749,0.32965 9.4263,0.98876 2.6513,0.65925 4.8559,1.3404 6.6138,2.04346 l 2.9004,1.09863 c 0.088,0.0294 0.1465,0.0587 0.1758,0.0879 z"
                 id="path4260"
                 style="font-size:90px;font-style:normal;font-variant:normal;font-weight:normal;font-stretch:normal;line-height:125%;letter-spacing:6.69999981px;word-spacing:0px;fill:#000000;fill-opacity:1;stroke:none;font-family:Felix Titling;-inkscape-font-specification:Felix Titling"
                 inkscape:connector-curvature="0" />
              <path
                 d="m 1276.963,317.74015 18.5449,0 0,0.65918 c -2.0215,-0.0878 -3.4424,0.21247 -4.2627,0.90088 -0.8204,0.68854 -1.2305,2.48297 -1.2305,5.3833 l 0,24.8291 38.4522,-28.87207 c 0.7616,-0.52728 1.1425,-1.01068 1.1425,-1.45019 0,-0.52728 -0.8643,-0.79095 -2.5927,-0.79102 l 0,-0.65918 13.9746,0 0,0.65918 c -3.5157,0.088 -6.9434,1.37702 -10.2832,3.86719 l -33.4864,25.00488 33.3985,25.40039 c 0.029,0.0293 0.073,0.0586 0.1318,0.0879 0.059,0.0293 0.1025,0.0732 0.1319,0.13184 0.059,0.0293 0.1171,0.0439 0.1757,0.0439 4.3945,3.28126 7.8003,5.58838 10.2173,6.92139 2.4169,1.333 4.6801,1.99951 6.7896,1.99951 l 0,0.61523 -22.0166,0 0,-0.61523 c 1.9628,0 2.9442,-0.21973 2.9443,-0.65918 -1e-4,-0.38086 -0.8057,-1.18652 -2.417,-2.41699 l -36.5625,-27.81739 0,24.03809 c 0,2.8125 0.1977,4.54102 0.5933,5.18555 0.3955,0.64453 0.9228,1.10595 1.582,1.38427 0.6592,0.27832 1.7358,0.37354 3.23,0.28565 l 0,0.61523 -18.457,0 0,-0.61523 c 2.4609,0.11719 4.0063,-0.25635 4.6362,-1.12061 0.6299,-0.86425 0.9448,-2.68798 0.9448,-5.47119 l 0,-50.22949 c 0,-2.87104 -0.3149,-4.73138 -0.9448,-5.58106 -0.6299,-0.84954 -2.1753,-1.20111 -4.6362,-1.05468 z"
                 id="path4262"
                 style="font-size:90px;font-style:normal;font-variant:normal;font-weight:normal;font-stretch:normal;line-height:125%;letter-spacing:6.69999981px;word-spacing:0px;fill:#000000;fill-opacity:1;stroke:none;font-family:Felix Titling;-inkscape-font-specification:Felix Titling"
                 inkscape:connector-curvature="0" />
              <path
                 d="m 1392.8671,352.67668 -18.8965,0 -9.7998,24.47753 c -0.6739,1.75782 -1.0108,2.8418 -1.0108,3.25196 0,0.9668 0.7177,1.45019 2.1533,1.45019 l 0,0.61524 -9.6241,0 0,-0.61524 c 1.2891,0 2.3731,-0.31494 3.252,-0.94482 0.8789,-0.62988 1.8458,-2.26318 2.9004,-4.8999 l 23.4668,-59.23828 1.0986,0 23.1152,57.21679 c 0,0.29298 0.5932,1.67725 1.7798,4.15283 1.1865,2.47559 2.9956,3.71338 5.4273,3.71338 l 0,0.61524 -15.1172,0 0,-0.61524 c 1.3769,0 2.0654,-0.54199 2.0654,-1.62597 0,-0.73242 -0.3369,-1.9043 -1.0107,-3.51563 -0.1172,-0.11718 -0.2198,-0.30761 -0.3076,-0.57129 -0.059,-0.29296 -0.1026,-0.43944 -0.1319,-0.43945 z m -18.2813,-1.80176 17.4902,0 -8.7452,-22.06055 z"
                 id="path4264"
                 style="font-size:90px;font-style:normal;font-variant:normal;font-weight:normal;font-stretch:normal;line-height:125%;letter-spacing:6.69999981px;word-spacing:0px;fill:#000000;fill-opacity:1;stroke:none;font-family:Felix Titling;-inkscape-font-specification:Felix Titling"
                 inkscape:connector-curvature="0" />
              <path
                 d="m 1486.5348,317.74015 10.1953,0 0,0.65918 c -3.4278,0.17585 -5.1417,1.9776 -5.1416,5.40528 -10e-5,0.73247 0.088,1.74322 0.2637,3.03222 l 6.7676,49.04297 c 0.41,2.46094 0.8715,4.03565 1.3842,4.72412 0.5126,0.68848 1.5746,1.10596 3.186,1.25244 l 0,0.61524 -14.5459,0 0,-0.61524 c 1.9042,0.0586 2.8563,-0.8789 2.8564,-2.8125 -1e-4,-0.43945 -0.088,-1.3037 -0.2637,-2.59277 l -6.5918,-47.54883 -23.2031,53.56934 -0.4394,0 -23.335,-53.48145 -6.5478,47.8125 c -0.1172,0.73243 -0.1758,1.56739 -0.1758,2.50488 0,1.69923 0.9814,2.54883 2.9444,2.54883 l 0,0.61524 -9.8877,0 0,-0.61524 c 1.494,0 2.4536,-0.19043 2.8784,-0.57129 0.4248,-0.38085 0.7544,-0.97412 0.9888,-1.77978 0.2344,-0.80566 0.4101,-1.70654 0.5273,-2.70264 l 7.3829,-52.29492 c -1.2012,-2.90033 -2.4024,-4.64349 -3.6036,-5.22949 -1.2011,-0.58588 -2.3584,-0.87884 -3.4716,-0.87891 l 0,-0.65918 12.2168,0 22.7636,52.9541 z"
                 id="path4266"
                 style="font-size:90px;font-style:normal;font-variant:normal;font-weight:normal;font-stretch:normal;line-height:125%;letter-spacing:6.69999981px;word-spacing:0px;fill:#000000;fill-opacity:1;stroke:none;font-family:Felix Titling;-inkscape-font-specification:Felix Titling"
                 inkscape:connector-curvature="0" />
              <path
                 d="m 1531.2005,351.61981 0,-0.3174 8.8873,0 c 3.16,3e-5 5.4559,0.3527 6.8877,1.05802 1.4318,0.70537 2.4758,1.58352 3.1317,2.63446 0.656,1.05099 0.984,2.43699 0.984,4.15801 0,2.63801 -0.91,4.62002 -2.7298,5.94605 -1.8198,1.32607 -4.2885,1.96088 -7.406,1.90443 l 0,-0.29624 c 1.9749,2e-5 3.5796,-0.60658 4.814,-1.81979 1.2343,-1.21317 1.8515,-2.80725 1.8515,-4.78224 0,-1.53763 -0.2998,-2.90247 -0.8993,-4.09452 -0.5996,-1.19201 -1.4426,-2.09838 -2.5288,-2.71911 -1.0861,-0.62067 -2.7437,-0.93102 -4.9726,-0.93105 l -2.2219,0 0,26.68319 c 0,1.50944 0.1693,2.40875 0.5079,2.69794 0.3386,0.2892 0.9804,0.43379 1.9257,0.43379 l 0,0.29625 -8.2314,0 0,-0.29625 c 1.4671,0 2.2007,-0.67007 2.2007,-2.01023 l 0,-25.81562 c 0,-1.10031 -0.1411,-1.83034 -0.4233,-2.1901 -0.2821,-0.35969 -0.8746,-0.53956 -1.7774,-0.53959 z"
                 id="path4268"
                 style="font-size:43.33638763px;font-style:normal;font-variant:normal;font-weight:normal;font-stretch:normal;line-height:125%;letter-spacing:0px;word-spacing:0px;fill:#000000;fill-opacity:1;stroke:none;font-family:Felix Titling;-inkscape-font-specification:Felix Titling"
                 inkscape:connector-curvature="0" />
              <path
                 d="m 1560.4785,380.60949 c 0,-0.6066 0.2187,-1.14266 0.656,-1.60819 0.4373,-0.46552 0.9875,-0.69829 1.6505,-0.69829 0.6771,0 1.2308,0.22571 1.6611,0.67713 0.4302,0.45142 0.6454,0.99454 0.6454,1.62935 0,0.6207 -0.2187,1.15676 -0.656,1.60818 -0.4373,0.45142 -0.9875,0.67713 -1.6505,0.67713 -0.5925,0 -1.125,-0.22571 -1.5976,-0.67713 -0.4726,-0.45142 -0.7089,-0.98748 -0.7089,-1.60818 z"
                 id="path4270"
                 style="font-size:43.33638763px;font-style:normal;font-variant:normal;font-weight:normal;font-stretch:normal;line-height:125%;letter-spacing:0px;word-spacing:0px;fill:#000000;fill-opacity:1;stroke:none;font-family:Felix Titling;-inkscape-font-specification:Felix Titling"
                 inkscape:connector-curvature="0" />
              <path
                 d="m 1601.6911,352.86827 1.1639,3.30102 -0.2963,0 c -3.0189,-3.00474 -6.5738,-4.50713 -10.6648,-4.50716 -4.2462,3e-5 -7.6777,1.2626 -10.2945,3.78771 -2.6168,2.52515 -3.9253,5.5793 -3.9253,9.16243 0,2.21479 0.582,4.76109 1.7458,7.63888 1.1638,2.87782 3.0011,5.24424 5.5121,7.0993 2.5111,1.85505 5.5511,2.78258 9.1203,2.78258 2.3416,0 4.6376,-0.37736 6.8876,-1.13208 2.2501,-0.75471 3.9253,-1.76688 5.0255,-3.03651 l 0.2752,0.0846 -2.1795,3.34334 c -3.5269,0.76177 -5.8156,1.21319 -6.8665,1.35426 -1.051,0.14107 -2.4583,0.2116 -4.2216,0.2116 -6.5315,0 -11.2044,-1.51296 -14.0188,-4.53889 -2.8143,-3.02592 -4.2214,-6.64786 -4.2214,-10.86584 0,-2.84957 0.7229,-5.58984 2.1689,-8.22079 1.4459,-2.63091 3.5302,-4.70462 6.2529,-6.22114 2.7226,-1.51646 5.8332,-2.27471 9.3317,-2.27474 1.7492,3e-5 3.2622,0.15873 4.5389,0.47611 1.2766,0.31743 2.3382,0.64542 3.1846,0.98395 l 1.3966,0.52901 c 0.042,0.0141 0.071,0.0282 0.085,0.0423 z"
                 id="path4272"
                 style="font-size:43.33638763px;font-style:normal;font-variant:normal;font-weight:normal;font-stretch:normal;line-height:125%;letter-spacing:0px;word-spacing:0px;fill:#000000;fill-opacity:1;stroke:none;font-family:Felix Titling;-inkscape-font-specification:Felix Titling"
                 inkscape:connector-curvature="0" />
              <path
                 d="m 1614.5911,380.60949 c 0,-0.6066 0.2185,-1.14266 0.6559,-1.60819 0.4374,-0.46552 0.9874,-0.69829 1.6505,-0.69829 0.6772,0 1.2309,0.22571 1.6611,0.67713 0.4303,0.45142 0.6454,0.99454 0.6454,1.62935 0,0.6207 -0.2186,1.15676 -0.6559,1.60818 -0.4374,0.45142 -0.9875,0.67713 -1.6505,0.67713 -0.5925,0 -1.1251,-0.22571 -1.5977,-0.67713 -0.4725,-0.45142 -0.7088,-0.98748 -0.7088,-1.60818 z"
                 id="path4274"
                 style="font-size:43.33638763px;font-style:normal;font-variant:normal;font-weight:normal;font-stretch:normal;line-height:125%;letter-spacing:0px;word-spacing:0px;fill:#000000;fill-opacity:1;stroke:none;font-family:Felix Titling;-inkscape-font-specification:Felix Titling"
                 inkscape:connector-curvature="0" />
              <path
                 d="m 465.74863,430.02018 -2.3789,1.8252 c -1.31253,-1.70896 -2.88821,-3.00437 -4.72705,-3.88623 -1.83889,-0.88181 -3.85891,-1.32273 -6.06006,-1.32276 -2.40627,3e-5 -4.63478,0.57767 -6.68555,1.73291 -2.05079,1.1553 -3.64015,2.70706 -4.76807,4.65528 -1.12793,1.94826 -1.6919,4.13917 -1.69189,6.57275 -1e-5,3.67775 1.26122,6.74708 3.78369,9.20801 2.52245,2.46094 5.70457,3.69141 9.54639,3.6914 4.22458,1e-5 7.75876,-1.65429 10.60254,-4.96289 l 2.3789,1.80469 c -1.50394,1.91407 -3.3804,3.39405 -5.62939,4.43994 -2.24905,1.0459 -4.76126,1.56885 -7.53662,1.56885 -5.27736,0 -9.44044,-1.75683 -12.48926,-5.27051 -2.55665,-2.96679 -3.83496,-6.54881 -3.83496,-10.74609 0,-4.416 1.54833,-8.13133 4.64502,-11.146 3.09667,-3.01462 6.97606,-4.52194 11.63818,-4.52197 2.81638,3e-5 5.35935,0.55716 7.62891,1.67139 2.2695,1.11428 4.12887,2.67629 5.57812,4.68603 z"
                 id="path4277"
                 style="font-size:42px;font-style:normal;font-variant:normal;font-weight:normal;font-stretch:normal;line-height:125%;letter-spacing:12.34000015px;word-spacing:0px;fill:#000000;fill-opacity:1;stroke:none;font-family:Century Gothic;-inkscape-font-specification:Century Gothic"
                 inkscape:connector-curvature="0" />
              <path
                 d="m 484.13844,424.42155 17.28808,0 0,2.97363 -14.27344,0 0,9.4336 14.15039,0 0,2.95312 -14.15039,0 0,11.83301 14.15039,0 0,2.97363 -17.16503,0 z"
                 id="path4279"
                 style="font-size:42px;font-style:normal;font-variant:normal;font-weight:normal;font-stretch:normal;line-height:125%;letter-spacing:12.34000015px;word-spacing:0px;fill:#000000;fill-opacity:1;stroke:none;font-family:Century Gothic;-inkscape-font-specification:Century Gothic"
                 inkscape:connector-curvature="0" />
              <path
                 d="m 519.18059,424.42155 6.00878,0 c 3.3496,3e-5 5.61913,0.13675 6.8086,0.41016 1.79099,0.41018 3.24705,1.2886 4.36816,2.63525 1.12107,1.3467 1.68162,3.00442 1.68164,4.97314 -2e-5,1.64065 -0.38625,3.08303 -1.15869,4.32715 -0.77248,1.24416 -1.87648,2.1841 -3.31201,2.81983 -1.43556,0.63575 -3.41798,0.96046 -5.94727,0.97412 l 10.84864,14.02734 -3.73242,0 -10.82813,-14.02734 -1.72266,0 0,14.02734 -3.01465,0 z m 3.01464,2.95312 0,10.25391 5.18848,0.041 c 2.00975,1e-5 3.49657,-0.19139 4.46045,-0.57422 0.96385,-0.3828 1.7158,-0.99461 2.25586,-1.83545 0.54002,-0.8408 0.81004,-1.78074 0.81006,-2.81983 -2e-5,-1.01169 -0.27346,-1.93112 -0.82032,-2.7583 -0.54689,-0.82712 -1.26466,-1.41843 -2.15332,-1.77392 -0.88868,-0.35544 -2.36524,-0.53318 -4.42968,-0.53321 z"
                 id="path4281"
                 style="font-size:42px;font-style:normal;font-variant:normal;font-weight:normal;font-stretch:normal;line-height:125%;letter-spacing:12.34000015px;word-spacing:0px;fill:#000000;fill-opacity:1;stroke:none;font-family:Century Gothic;-inkscape-font-specification:Century Gothic"
                 inkscape:connector-curvature="0" />
              <path
                 d="m 553.8741,427.35417 0,-2.93262 16.54981,0 0,2.93262 -6.72656,0 0,27.23437 -3.07617,0 0,-27.23437 z"
                 id="path4283"
                 style="font-size:42px;font-style:normal;font-variant:normal;font-weight:normal;font-stretch:normal;line-height:125%;letter-spacing:12.34000015px;word-spacing:0px;fill:#000000;fill-opacity:1;stroke:none;font-family:Century Gothic;-inkscape-font-specification:Century Gothic"
                 inkscape:connector-curvature="0" />
              <path
                 d="m 586.66039,424.42155 3.01465,0 0,30.16699 -3.01465,0 z"
                 id="path4285"
                 style="font-size:42px;font-style:normal;font-variant:normal;font-weight:normal;font-stretch:normal;line-height:125%;letter-spacing:12.34000015px;word-spacing:0px;fill:#000000;fill-opacity:1;stroke:none;font-family:Century Gothic;-inkscape-font-specification:Century Gothic"
                 inkscape:connector-curvature="0" />
              <path
                 d="m 608.94668,424.42155 15.11425,0 0,2.97363 -12.12011,0 0,9.4336 12.12011,0 0,2.97363 -12.12011,0 0,14.78613 -2.99414,0 z"
                 id="path4287"
                 style="font-size:42px;font-style:normal;font-variant:normal;font-weight:normal;font-stretch:normal;line-height:125%;letter-spacing:12.34000015px;word-spacing:0px;fill:#000000;fill-opacity:1;stroke:none;font-family:Century Gothic;-inkscape-font-specification:Century Gothic"
                 inkscape:connector-curvature="0" />
              <path
                 d="m 641.19977,424.42155 3.01465,0 0,30.16699 -3.01465,0 z"
                 id="path4289"
                 style="font-size:42px;font-style:normal;font-variant:normal;font-weight:normal;font-stretch:normal;line-height:125%;letter-spacing:12.34000015px;word-spacing:0px;fill:#000000;fill-opacity:1;stroke:none;font-family:Century Gothic;-inkscape-font-specification:Century Gothic"
                 inkscape:connector-curvature="0" />
              <path
                 d="m 663.50657,424.42155 17.28808,0 0,2.97363 -14.27344,0 0,9.4336 14.1504,0 0,2.95312 -14.1504,0 0,11.83301 14.1504,0 0,2.97363 -17.16504,0 z"
                 id="path4291"
                 style="font-size:42px;font-style:normal;font-variant:normal;font-weight:normal;font-stretch:normal;line-height:125%;letter-spacing:12.34000015px;word-spacing:0px;fill:#000000;fill-opacity:1;stroke:none;font-family:Century Gothic;-inkscape-font-specification:Century Gothic"
                 inkscape:connector-curvature="0" />
              <path
                 d="m 698.38465,454.58854 0,-30.16699 6.25488,0 c 4.51171,3e-5 7.78612,0.36233 9.82324,1.08691 2.92576,1.02542 5.21238,2.80276 6.85987,5.33203 1.64743,2.52932 2.47116,5.54397 2.47119,9.04395 -3e-5,3.0215 -0.65286,5.68067 -1.9585,7.97754 -1.30569,2.29688 -3.001,3.99219 -5.08594,5.08594 -2.08498,1.09375 -5.00734,1.64062 -8.76709,1.64062 z m 2.8916,-2.85058 3.48633,0 c 4.16991,0 7.0615,-0.25977 8.6748,-0.7793 2.26951,-0.73828 4.05369,-2.06787 5.35254,-3.98877 1.2988,-1.92089 1.94822,-4.26903 1.94824,-7.04443 -2e-5,-2.9121 -0.70412,-5.40038 -2.1123,-7.46485 -1.40823,-2.06443 -3.37014,-3.47947 -5.88574,-4.24512 -1.88674,-0.57419 -4.99709,-0.8613 -9.33106,-0.86132 l -2.13281,0 z"
                 id="path4293"
                 style="font-size:42px;font-style:normal;font-variant:normal;font-weight:normal;font-stretch:normal;line-height:125%;letter-spacing:12.34000015px;word-spacing:0px;fill:#000000;fill-opacity:1;stroke:none;font-family:Century Gothic;-inkscape-font-specification:Century Gothic"
                 inkscape:connector-curvature="0" />
              <path
                 d="m 765.94648,424.42155 6.00879,0 c 3.4453,3e-5 5.76951,0.15042 6.97265,0.45117 1.72264,0.42386 3.13084,1.29544 4.22461,2.61475 1.09373,1.31936 1.6406,2.97707 1.64063,4.97314 -3e-5,2.00979 -0.53323,3.6675 -1.59961,4.97315 -1.06643,1.30568 -2.53615,2.18409 -4.40918,2.63525 -1.3672,0.32814 -3.92384,0.4922 -7.66992,0.49219 l -2.15332,0 0,14.02734 -3.01465,0 z m 3.01465,2.93262 0,10.2539 5.10644,0.0615 c 2.06444,10e-6 3.57518,-0.18798 4.53223,-0.56397 0.95701,-0.37596 1.70896,-0.98436 2.25586,-1.82519 0.54685,-0.8408 0.82029,-1.78074 0.82031,-2.81983 -2e-5,-1.01169 -0.27346,-1.93796 -0.82031,-2.77881 -0.5469,-0.84079 -1.26809,-1.43894 -2.16358,-1.79443 -0.89552,-0.35544 -2.36183,-0.53318 -4.39892,-0.5332 z"
                 id="path4295"
                 style="font-size:42px;font-style:normal;font-variant:normal;font-weight:normal;font-stretch:normal;line-height:125%;letter-spacing:12.34000015px;word-spacing:0px;fill:#000000;fill-opacity:1;stroke:none;font-family:Century Gothic;-inkscape-font-specification:Century Gothic"
                 inkscape:connector-curvature="0" />
              <path
                 d="m 803.26499,424.42155 3.01465,0 0,18.21094 c -10e-6,2.16016 0.041,3.50684 0.12304,4.04004 0.15039,1.18946 0.49902,2.18408 1.0459,2.98388 0.54687,0.79981 1.38769,1.46973 2.52246,2.00977 1.13476,0.54004 2.27636,0.81006 3.42481,0.81006 0.99803,0 1.95506,-0.21192 2.87109,-0.63575 0.916,-0.42382 1.68162,-1.01171 2.29688,-1.76367 0.61521,-0.75195 1.06638,-1.66112 1.35351,-2.72754 0.20506,-0.76561 0.3076,-2.33788 0.30762,-4.71679 l 0,-18.21094 3.01465,0 0,18.21094 c -3e-5,2.69337 -0.26321,4.87061 -0.78955,6.53173 -0.52639,1.66114 -1.57913,3.10694 -3.15821,4.33741 -1.57912,1.23047 -3.48976,1.8457 -5.73193,1.8457 -2.4336,0 -4.51856,-0.58105 -6.25488,-1.74316 -1.73634,-1.16211 -2.89844,-2.7002 -3.48633,-4.61426 -0.36914,-1.17578 -0.55371,-3.29491 -0.55371,-6.35742 z"
                 id="path4297"
                 style="font-size:42px;font-style:normal;font-variant:normal;font-weight:normal;font-stretch:normal;line-height:125%;letter-spacing:12.34000015px;word-spacing:0px;fill:#000000;fill-opacity:1;stroke:none;font-family:Century Gothic;-inkscape-font-specification:Century Gothic"
                 inkscape:connector-curvature="0" />
              <path
                 d="m 843.06498,424.42155 5.94726,0 c 2.39257,3e-5 4.23143,0.28372 5.5166,0.85107 1.28514,0.56741 2.30028,1.439 3.04541,2.61475 0.7451,1.17581 1.11766,2.48147 1.11768,3.91699 -2e-5,1.33987 -0.32814,2.56008 -0.98438,3.66065 -0.65626,1.1006 -1.62013,1.99269 -2.8916,2.67627 1.57225,0.53321 2.78221,1.1587 3.62989,1.87646 0.84763,0.71779 1.5073,1.58595 1.979,2.60449 0.47166,1.01857 0.7075,2.12257 0.70752,3.31201 -2e-5,2.41993 -0.88528,4.46729 -2.65576,6.14209 -1.77053,1.67481 -4.14601,2.51221 -7.12647,2.51221 l -8.28515,0 z m 2.95312,2.95312 0,9.65918 1.72266,0 c 2.09178,2e-5 3.62987,-0.1948 4.61426,-0.58447 0.98436,-0.38963 1.76365,-1.00486 2.33789,-1.8457 0.5742,-0.8408 0.86131,-1.77391 0.86132,-2.79932 -10e-6,-1.38083 -0.48194,-2.46433 -1.4458,-3.25049 -0.96388,-0.7861 -2.49854,-1.17917 -4.604,-1.1792 z m 0,12.69434 0,11.56641 3.73242,0 c 2.20116,0 3.81444,-0.21533 4.83985,-0.646 1.02537,-0.43066 1.8491,-1.104 2.47119,-2.02002 0.62205,-0.91601 0.93309,-1.90722 0.9331,-2.97363 -10e-6,-1.33984 -0.43751,-2.50878 -1.3125,-3.50684 -0.87501,-0.99803 -2.07814,-1.68163 -3.60937,-2.05078 -1.0254,-0.24608 -2.80958,-0.36913 -5.35254,-0.36914 z"
                 id="path4299"
                 style="font-size:42px;font-style:normal;font-variant:normal;font-weight:normal;font-stretch:normal;line-height:125%;letter-spacing:12.34000015px;word-spacing:0px;fill:#000000;fill-opacity:1;stroke:none;font-family:Century Gothic;-inkscape-font-specification:Century Gothic"
                 inkscape:connector-curvature="0" />
              <path
                 d="m 879.44013,424.42155 3.03516,0 0,27.25488 11.58691,0 0,2.91211 -14.62207,0 z"
                 id="path4301"
                 style="font-size:42px;font-style:normal;font-variant:normal;font-weight:normal;font-stretch:normal;line-height:125%;letter-spacing:12.34000015px;word-spacing:0px;fill:#000000;fill-opacity:1;stroke:none;font-family:Century Gothic;-inkscape-font-specification:Century Gothic"
                 inkscape:connector-curvature="0" />
              <path
                 d="m 910.79087,424.42155 3.01465,0 0,30.16699 -3.01465,0 z"
                 id="path4303"
                 style="font-size:42px;font-style:normal;font-variant:normal;font-weight:normal;font-stretch:normal;line-height:125%;letter-spacing:12.34000015px;word-spacing:0px;fill:#000000;fill-opacity:1;stroke:none;font-family:Century Gothic;-inkscape-font-specification:Century Gothic"
                 inkscape:connector-curvature="0" />
              <path
                 d="m 961.17286,430.02018 -2.37891,1.8252 c -1.31253,-1.70896 -2.88821,-3.00437 -4.72705,-3.88623 -1.83889,-0.88181 -3.85891,-1.32273 -6.06006,-1.32276 -2.40627,3e-5 -4.63478,0.57767 -6.68555,1.73291 -2.05079,1.1553 -3.64014,2.70706 -4.76806,4.65528 -1.12794,1.94826 -1.6919,4.13917 -1.6919,6.57275 0,3.67775 1.26123,6.74708 3.78369,9.20801 2.52245,2.46094 5.70458,3.69141 9.54639,3.6914 4.22459,1e-5 7.75876,-1.65429 10.60254,-4.96289 l 2.37891,1.80469 c -1.50394,1.91407 -3.3804,3.39405 -5.6294,4.43994 -2.24905,1.0459 -4.76125,1.56885 -7.53662,1.56885 -5.27736,0 -9.44044,-1.75683 -12.48926,-5.27051 -2.55664,-2.96679 -3.83496,-6.54881 -3.83496,-10.74609 0,-4.416 1.54834,-8.13133 4.64502,-11.146 3.09667,-3.01462 6.97606,-4.52194 11.63819,-4.52197 2.81638,3e-5 5.35935,0.55716 7.6289,1.67139 2.2695,1.11428 4.12888,2.67629 5.57813,4.68603 z"
                 id="path4305"
                 style="font-size:42px;font-style:normal;font-variant:normal;font-weight:normal;font-stretch:normal;line-height:125%;letter-spacing:12.34000015px;word-spacing:0px;fill:#000000;fill-opacity:1;stroke:none;font-family:Century Gothic;-inkscape-font-specification:Century Gothic"
                 inkscape:connector-curvature="0" />
              <path
                 d="m 1015.8558,424.42155 14.0684,30.16699 -3.2403,0 -4.7373,-9.92578 -13.0019,0 -4.7168,9.92578 -3.3633,0 14.2529,-30.16699 z m -0.3691,6.39844 -5.1885,10.93066 10.3154,0 z"
                 id="path4307"
                 style="font-size:42px;font-style:normal;font-variant:normal;font-weight:normal;font-stretch:normal;line-height:125%;letter-spacing:12.34000015px;word-spacing:0px;fill:#000000;fill-opacity:1;stroke:none;font-family:Century Gothic;-inkscape-font-specification:Century Gothic"
                 inkscape:connector-curvature="0" />
              <path
                 d="m 1075.0561,430.02018 -2.3789,1.8252 c -1.3125,-1.70896 -2.8882,-3.00437 -4.727,-3.88623 -1.8389,-0.88181 -3.859,-1.32273 -6.0601,-1.32276 -2.4063,3e-5 -4.6348,0.57767 -6.6856,1.73291 -2.0507,1.1553 -3.6401,2.70706 -4.768,4.65528 -1.128,1.94826 -1.6919,4.13917 -1.6919,6.57275 0,3.67775 1.2612,6.74708 3.7837,9.20801 2.5224,2.46094 5.7045,3.69141 9.5464,3.6914 4.2246,1e-5 7.7587,-1.65429 10.6025,-4.96289 l 2.3789,1.80469 c -1.5039,1.91407 -3.3804,3.39405 -5.6294,4.43994 -2.249,1.0459 -4.7612,1.56885 -7.5366,1.56885 -5.2774,0 -9.4404,-1.75683 -12.4893,-5.27051 -2.5566,-2.96679 -3.8349,-6.54881 -3.8349,-10.74609 0,-4.416 1.5483,-8.13133 4.645,-11.146 3.0967,-3.01462 6.9761,-4.52194 11.6382,-4.52197 2.8164,3e-5 5.3593,0.55716 7.6289,1.67139 2.2695,1.11428 4.1289,2.67629 5.5781,4.68603 z"
                 id="path4309"
                 style="font-size:42px;font-style:normal;font-variant:normal;font-weight:normal;font-stretch:normal;line-height:125%;letter-spacing:12.34000015px;word-spacing:0px;fill:#000000;fill-opacity:1;stroke:none;font-family:Century Gothic;-inkscape-font-specification:Century Gothic"
                 inkscape:connector-curvature="0" />
              <path
                 d="m 1121.5211,430.02018 -2.3789,1.8252 c -1.3125,-1.70896 -2.8882,-3.00437 -4.727,-3.88623 -1.8389,-0.88181 -3.8589,-1.32273 -6.0601,-1.32276 -2.4062,3e-5 -4.6348,0.57767 -6.6855,1.73291 -2.0508,1.1553 -3.6402,2.70706 -4.7681,4.65528 -1.1279,1.94826 -1.6919,4.13917 -1.6919,6.57275 0,3.67775 1.2612,6.74708 3.7837,9.20801 2.5225,2.46094 5.7046,3.69141 9.5464,3.6914 4.2246,1e-5 7.7588,-1.65429 10.6025,-4.96289 l 2.3789,1.80469 c -1.5039,1.91407 -3.3804,3.39405 -5.6294,4.43994 -2.249,1.0459 -4.7612,1.56885 -7.5366,1.56885 -5.2773,0 -9.4404,-1.75683 -12.4892,-5.27051 -2.5567,-2.96679 -3.835,-6.54881 -3.835,-10.74609 0,-4.416 1.5483,-8.13133 4.645,-11.146 3.0967,-3.01462 6.9761,-4.52194 11.6382,-4.52197 2.8164,3e-5 5.3594,0.55716 7.6289,1.67139 2.2695,1.11428 4.1289,2.67629 5.5781,4.68603 z"
                 id="path4311"
                 style="font-size:42px;font-style:normal;font-variant:normal;font-weight:normal;font-stretch:normal;line-height:125%;letter-spacing:12.34000015px;word-spacing:0px;fill:#000000;fill-opacity:1;stroke:none;font-family:Century Gothic;-inkscape-font-specification:Century Gothic"
                 inkscape:connector-curvature="0" />
              <path
                 d="m 1154.2664,423.66276 c 4.5664,3e-5 8.3876,1.52444 11.4638,4.57324 3.0762,3.04885 4.6143,6.80178 4.6143,11.25879 0,4.41603 -1.5347,8.16212 -4.604,11.23828 -3.0694,3.07618 -6.812,4.61426 -11.228,4.61426 -4.4708,0 -8.2442,-1.53125 -11.3204,-4.59375 -3.0761,-3.06249 -4.6142,-6.76757 -4.6142,-11.11523 0,-2.89842 0.7007,-5.58494 2.1021,-8.05957 1.4013,-2.47459 3.312,-4.41257 5.7319,-5.81397 2.4199,-1.40134 5.0381,-2.10202 7.8545,-2.10205 z m 0.1435,2.95312 c -2.2285,3e-5 -4.3408,0.58109 -6.3369,1.74317 -1.9961,1.16213 -3.5547,2.72756 -4.6758,4.69629 -1.1211,1.96877 -1.6816,4.1631 -1.6816,6.58301 0,3.58204 1.2407,6.60694 3.7222,9.0747 2.4814,2.46778 5.4721,3.70167 8.9721,3.70166 2.3379,10e-6 4.5015,-0.56738 6.4908,-1.70215 1.9892,-1.13476 3.5409,-2.68651 4.6552,-4.65527 1.1142,-1.96874 1.6714,-4.15624 1.6714,-6.5625 0,-2.39256 -0.5572,-4.55613 -1.6714,-6.49072 -1.1143,-1.93455 -2.6831,-3.48289 -4.7065,-4.64502 -2.0235,-1.16208 -4.17,-1.74314 -6.4395,-1.74317 z"
                 id="path4313"
                 style="font-size:42px;font-style:normal;font-variant:normal;font-weight:normal;font-stretch:normal;line-height:125%;letter-spacing:12.34000015px;word-spacing:0px;fill:#000000;fill-opacity:1;stroke:none;font-family:Century Gothic;-inkscape-font-specification:Century Gothic"
                 inkscape:connector-curvature="0" />
              <path
                 d="m 1188.8369,424.42155 3.0146,0 0,18.21094 c 0,2.16016 0.041,3.50684 0.1231,4.04004 0.1503,1.18946 0.499,2.18408 1.0459,2.98388 0.5468,0.79981 1.3877,1.46973 2.5224,2.00977 1.1348,0.54004 2.2764,0.81006 3.4248,0.81006 0.9981,0 1.9551,-0.21192 2.8711,-0.63575 0.916,-0.42382 1.6816,-1.01171 2.2969,-1.76367 0.6152,-0.75195 1.0664,-1.66112 1.3535,-2.72754 0.2051,-0.76561 0.3076,-2.33788 0.3076,-4.71679 l 0,-18.21094 3.0147,0 0,18.21094 c -10e-5,2.69337 -0.2632,4.87061 -0.7896,6.53173 -0.5264,1.66114 -1.5791,3.10694 -3.1582,4.33741 -1.5791,1.23047 -3.4897,1.8457 -5.7319,1.8457 -2.4336,0 -4.5186,-0.58105 -6.2549,-1.74316 -1.7363,-1.16211 -2.8984,-2.7002 -3.4863,-4.61426 -0.3692,-1.17578 -0.5537,-3.29491 -0.5537,-6.35742 z"
                 id="path4315"
                 style="font-size:42px;font-style:normal;font-variant:normal;font-weight:normal;font-stretch:normal;line-height:125%;letter-spacing:12.34000015px;word-spacing:0px;fill:#000000;fill-opacity:1;stroke:none;font-family:Century Gothic;-inkscape-font-specification:Century Gothic"
                 inkscape:connector-curvature="0" />
              <path
                 d="m 1228.5753,454.58854 0,-30.16699 0.6562,0 20.0567,23.0918 0,-23.0918 2.9736,0 0,30.16699 -0.6768,0 -19.8925,-22.80469 0,22.80469 z"
                 id="path4317"
                 style="font-size:42px;font-style:normal;font-variant:normal;font-weight:normal;font-stretch:normal;line-height:125%;letter-spacing:12.34000015px;word-spacing:0px;fill:#000000;fill-opacity:1;stroke:none;font-family:Century Gothic;-inkscape-font-specification:Century Gothic"
                 inkscape:connector-curvature="0" />
              <path
                 d="m 1268.9905,427.35417 0,-2.93262 16.5498,0 0,2.93262 -6.7266,0 0,27.23437 -3.0761,0 0,-27.23437 z"
                 id="path4319"
                 style="font-size:42px;font-style:normal;font-variant:normal;font-weight:normal;font-stretch:normal;line-height:125%;letter-spacing:12.34000015px;word-spacing:0px;fill:#000000;fill-opacity:1;stroke:none;font-family:Century Gothic;-inkscape-font-specification:Century Gothic"
                 inkscape:connector-curvature="0" />
              <path
                 d="m 1314.5327,424.42155 14.0683,30.16699 -3.2402,0 -4.7373,-9.92578 -13.002,0 -4.7168,9.92578 -3.3632,0 14.2529,-30.16699 z m -0.3692,6.39844 -5.1884,10.93066 10.3154,0 z"
                 id="path4321"
                 style="font-size:42px;font-style:normal;font-variant:normal;font-weight:normal;font-stretch:normal;line-height:125%;letter-spacing:12.34000015px;word-spacing:0px;fill:#000000;fill-opacity:1;stroke:none;font-family:Century Gothic;-inkscape-font-specification:Century Gothic"
                 inkscape:connector-curvature="0" />
              <path
                 d="m 1345.6578,454.58854 0,-30.16699 0.6562,0 20.0567,23.0918 0,-23.0918 2.9736,0 0,30.16699 -0.6767,0 -19.8926,-22.80469 0,22.80469 z"
                 id="path4323"
                 style="font-size:42px;font-style:normal;font-variant:normal;font-weight:normal;font-stretch:normal;line-height:125%;letter-spacing:12.34000015px;word-spacing:0px;fill:#000000;fill-opacity:1;stroke:none;font-family:Century Gothic;-inkscape-font-specification:Century Gothic"
                 inkscape:connector-curvature="0" />
              <path
                 d="m 1386.073,427.35417 0,-2.93262 16.5498,0 0,2.93262 -6.7265,0 0,27.23437 -3.0762,0 0,-27.23437 z"
                 id="path4325"
                 style="font-size:42px;font-style:normal;font-variant:normal;font-weight:normal;font-stretch:normal;line-height:125%;letter-spacing:12.34000015px;word-spacing:0px;fill:#000000;fill-opacity:1;stroke:none;font-family:Century Gothic;-inkscape-font-specification:Century Gothic"
                 inkscape:connector-curvature="0" />
              <path
                 d="m 1416.1727,448.9694 2.5635,-1.53809 c 1.8047,3.32227 3.8897,4.98341 6.2549,4.9834 1.0117,10e-6 1.9619,-0.23583 2.8506,-0.70752 0.8887,-0.47167 1.5654,-1.104 2.0303,-1.89697 0.4648,-0.79296 0.6972,-1.63378 0.6972,-2.52246 0,-1.01171 -0.3418,-2.00292 -1.0254,-2.97363 -0.9433,-1.33984 -2.666,-2.95311 -5.1679,-4.83985 -2.5157,-1.90037 -4.0811,-3.27439 -4.6963,-4.12207 -1.0664,-1.42185 -1.5996,-2.95994 -1.5996,-4.61425 0,-1.31248 0.3144,-2.50877 0.9433,-3.58887 0.6289,-1.08005 1.5142,-1.93112 2.6558,-2.55322 1.1416,-0.62204 2.3823,-0.93308 3.7222,-0.93311 1.4218,3e-5 2.7514,0.35208 3.9887,1.05615 1.2373,0.70413 2.5464,1.99954 3.9273,3.88623 l -2.461,1.86621 c -1.1347,-1.50388 -2.102,-2.49509 -2.9018,-2.97363 -0.7998,-0.47849 -1.6714,-0.71774 -2.6148,-0.71777 -1.2168,3e-5 -2.2114,0.36917 -2.9839,1.10742 -0.7724,0.73831 -1.1586,1.64749 -1.1586,2.72754 0,0.65627 0.1367,1.29201 0.4101,1.90722 0.2735,0.61526 0.7725,1.28518 1.4971,2.00977 0.3965,0.38283 1.6953,1.38771 3.8965,3.01465 2.6113,1.92775 4.4023,3.64357 5.373,5.14746 0.9707,1.50392 1.4561,3.01466 1.4561,4.53223 0,2.1875 -0.8306,4.08789 -2.4917,5.70117 -1.6612,1.61328 -3.6812,2.41992 -6.0601,2.41992 -1.832,0 -3.4932,-0.48877 -4.9834,-1.46631 -1.4902,-0.97754 -2.8642,-2.61474 -4.1221,-4.91162 z"
                 id="path4327"
                 style="font-size:42px;font-style:normal;font-variant:normal;font-weight:normal;font-stretch:normal;line-height:125%;letter-spacing:12.34000015px;word-spacing:0px;fill:#000000;fill-opacity:1;stroke:none;font-family:Century Gothic;-inkscape-font-specification:Century Gothic"
                 inkscape:connector-curvature="0" />
              <path
                 d="m 374.14144,398.17485 1135.91476,0.0631"
                 id="path3095"
                 style="fill:#000000;stroke:#000000;stroke-width:5.19908619;stroke-linecap:butt;stroke-linejoin:miter;stroke-miterlimit:4;stroke-opacity:1;stroke-dasharray:none;display:inline"
                 inkscape:connector-curvature="0" />
              <path
                 d="m 90.061086,241.08474 c 0,81.62131 0.0035,163.23857 0.01007,244.85988 81.637434,0 163.272884,0.004 244.910354,0 0.004,-81.62131 -0.008,-163.23857 0,-244.85988 -81.64151,-0.008 -163.27898,-0.004 -244.92047,0 z m 63.593664,5.07053 c 58.7706,-0.006 117.53616,0.006 176.30678,0 0.008,78.2598 0.0105,156.51962 0.0105,234.77942 -78.36486,0 -156.73173,0.0122 -235.09253,0 l 0,-234.75923 c 19.59018,-0.008 39.18543,-0.0181 58.77564,-0.0201 z"
                 id="path3952"
                 style="fill:#042463"
                 inkscape:connector-curvature="0" />
              <path
                 d="m 101.98901,251.19528 c -0.73533,0.008 -1.46026,0.0744 -2.1875,0.1875 0.0687,74.91044 -0.009,149.80833 0.0312,224.71875 75.00335,0.0849 150.02788,-0.005 225.03125,0.0312 0.0606,-74.9872 -0.0122,-149.95434 0,-224.9375 -74.29228,-0.008 -148.58273,0.0122 -222.875,0 z m 51.15625,24.96875 28.03125,0 c 8.20323,1.1e-4 14.01942,0.34775 17.4375,1.03125 3.41798,0.68371 6.68738,1.97761 9.8125,3.90625 3.12499,1.92885 5.80263,4.70609 8,8.34375 2.19723,3.63785 3.28118,7.79883 3.28125,12.4375 -7e-5,9.1311 -4.48428,16.32028 -13.46875,21.59375 7.76375,1.31844 13.60728,4.52242 17.5625,9.625 3.95507,5.10268 5.93742,11.31827 5.9375,18.59375 -8e-5,6.78726 -1.70021,12.93351 -5.09375,18.5 -3.39369,5.56652 -7.25487,9.29392 -11.625,11.125 -3.3794,1.41593 -7.81532,2.28028 -13.28125,2.59375 l 0,14.40625 54.625,0 0,-35.5625 c -8e-5,-4.05131 -0.33359,-6.81815 -1.03125,-8.28125 -0.69782,-1.46291 -2.64772,-2.1874 -5.84375,-2.1875 l 0,-1.03125 25.4375,0 0,1.03125 c -2.0258,10e-5 -3.50975,0.21493 -4.5,0.6875 -0.99043,0.47276 -1.67122,1.2285 -2.03125,2.21875 -0.36021,0.99044 -0.56259,3.51119 -0.5625,7.5625 l 0,76.375 c -9e-5,3.91636 0.20229,6.34467 0.5625,7.3125 0.36003,0.96784 0.9746,1.77603 1.875,2.40625 0.90022,0.63022 2.45039,0.9375 4.65625,0.9375 l 0,0.9375 -25.4375,0 0,-0.9375 c 2.74588,0 4.57711,-0.56211 5.5,-1.6875 0.92274,-1.12539 1.37492,-4.17328 1.375,-9.125 l 0,-37.875 -54.625,0 0,38.28125 c -2e-5,3.60125 0.16236,5.91591 0.5,6.90625 0.33759,0.99035 0.98341,1.79352 1.90625,2.46875 0.92279,0.67523 2.51668,1.03125 4.8125,1.03125 l 0,0.9375 -25.71875,0 0,-0.9375 c 4.68161,0.31511 7.03124,-1.95082 7.03125,-6.8125 l 0,-58.9375 -35.28125,0 0,-1 c 3.32036,0 5.44724,-0.68845 6.375,-2.03125 0.92774,-1.34279 1.37499,-4.76356 1.375,-10.28125 l 0,-81.3125 c -1e-5,-3.90622 -0.0928,-6.55261 -0.3125,-7.96875 -0.21974,-1.41594 -0.93554,-2.47254 -2.15625,-3.15625 -1.22074,-0.6835 -2.9277,-1.03114 -5.125,-1.03125 l 0,-1.09375 z m 20.0625,2.28125 0,47.375 13.09375,0 c 8.88683,6e-5 14.78212,-2.54672 17.6875,-7.625 2.90527,-5.07815 4.37494,-10.12678 4.375,-15.15625 -6e-5,-5.41994 -1.12893,-9.9559 -3.375,-13.59375 -2.24619,-3.63766 -5.52243,-6.36315 -9.84375,-8.21875 -4.32141,-1.8554 -10.6952,-2.78114 -19.09375,-2.78125 l -2.84375,0 z m 0,49.65625 0,34.1875 c -3e-5,4.73643 0.16501,7.83397 0.53125,9.25 0.36619,1.41605 1.206,2.90623 2.5,4.46875 1.29394,1.56254 3.4003,2.79784 6.28125,3.75 1.54603,0.51098 3.4764,0.85452 5.75,1.09375 l 0,-17.90625 c -1e-5,-4.54648 -0.38225,-7.40948 -1.125,-8.625 -0.74277,-1.21532 -2.71015,-1.8961 -5.90625,-2.03125 l 0,-1.03125 25.71875,0 0,1.03125 c -2.83601,0.18016 -4.72843,0.72479 -5.71875,1.625 -0.99037,0.90041 -1.50002,2.74038 -1.5,5.53125 l 0,21.5 c 5.91435,-0.62235 10.26355,-2.4635 13.03125,-5.5625 3.46679,-3.88189 5.18743,-9.63265 5.1875,-17.25 -7e-5,-7.91027 -1.54884,-14.36315 -4.625,-19.34375 -3.07629,-4.98051 -6.55565,-8.01946 -10.4375,-9.09375 -3.88196,-1.07418 -10.97837,-1.59369 -21.28125,-1.59375 l -8.40625,0 z"
                 id="path3956"
                 style="fill:#244355"
                 inkscape:connector-curvature="0" />
            </g>
          </g>
        </g>
      </g>
    </g>
  </g>
  <g
     id="layer2"
     style="display:inline"
     transform="translate(0,-839.87)" />
</svg>
